<?xml version="1.0" encoding="UTF-8" standalone="no"?>
<svg
   xmlns:dc="http://purl.org/dc/elements/1.1/"
   xmlns:cc="http://creativecommons.org/ns#"
   xmlns:rdf="http://www.w3.org/1999/02/22-rdf-syntax-ns#"
   xmlns:svg="http://www.w3.org/2000/svg"
   xmlns="http://www.w3.org/2000/svg"
   width="210mm"
   height="175mm"
   viewBox="0 0 210 175"
   version="1.1"
   id="svg8">
  <defs
     id="defs2" />
  <metadata
     id="metadata5">
    <rdf:RDF>
      <cc:Work
         rdf:about="">
        <dc:format>image/svg+xml</dc:format>
        <dc:type
           rdf:resource="http://purl.org/dc/dcmitype/StillImage" />
        <dc:title></dc:title>
      </cc:Work>
    </rdf:RDF>
  </metadata>
  <g
     id="layer1">
    <g
       id="g1346"
       transform="matrix(1.1142171,0,0,1.0944133,-8.0291252,-122.00508)">
      <path
         style="fill:#1a1a1a;stroke:#1a1a1a;stroke-width:0.264583px;stroke-linecap:butt;stroke-linejoin:miter;stroke-opacity:1"
         d="M 85.044279,139.25586 V 263.28002 H 117.83129 V 138.70654 l -16.39351,-26.96018 z"
         id="path1091" />
      <rect
         style="opacity:1;fill:#ffffff;stroke:none;stroke-width:1;stroke-linecap:round;stroke-linejoin:round;stroke-miterlimit:4;stroke-dasharray:none"
         id="rect1221"
         width="6.285563"
         height="58.434521"
         x="98.580353"
         y="210.64351" />
      <path
         style="fill:#000000;stroke:#000000;stroke-width:0.264583px;stroke-linecap:butt;stroke-linejoin:miter;stroke-opacity:1"
         d="m 125.40926,176.60624 c 0,0 41.33601,-28.37379 66.03086,11.67211 24.69484,40.04589 -70.90549,88.84959 -51.92116,73.92836 18.43096,-14.26108 36.26394,-44.46318 27.91933,-55.59239 -8.34462,-11.12921 -21.56546,-8.70753 -32.41671,0.0548 -12.82285,-5.47052 -14.68817,-19.12381 -9.61232,-30.06286 z"
         id="path871" />
      <path
         style="fill:#ffffff;stroke:#000000;stroke-width:0.264583px;stroke-linecap:butt;stroke-linejoin:miter;stroke-opacity:1"
         d="m 101.43779,271.25771 c 1.70511,0.0747 5.12231,-1.35052 9.24879,-3.62641 0.89986,-0.49631 4.49608,-3.76127 5.25443,-4.17323 0.4388,-0.23837 -0.45667,1.64713 -0.0542,1.4009 1.19033,-0.7283 1.68831,-1.93896 3.08484,-4.13103 0.64598,-1.01396 -1.62169,3.7404 -1.30955,3.47651 1.12311,-0.94953 3.56033,-5.55669 4.10547,-6.32935 0.93052,-1.31886 -1.87645,4.58899 -1.53612,4.30364 1.18747,-0.99565 5.01714,-6.987 5.58096,-7.87145 2.39876,-3.7629 -1.74897,4.48567 -1.4826,4.38264 0,0 1.09735,-0.7421 3.33803,-3.17589 1.90434,-2.06846 2.58269,-3.58911 2.87343,-4.21814 0.42675,-0.92325 -0.27468,3.62633 0.5213,2.27874 1.15649,-1.95793 1.25457,-5.91894 1.79616,-6.58043 0.20909,-0.25538 0.51876,2.31949 0.71676,2.06808 6.5253,-8.28581 7.11782,-14.41908 7.97522,-18.56183 2.37381,-11.46963 3.11369,-24.18938 0.6494,-26.51993 -10.35051,-9.78874 -10.69752,-15.9667 -10.66381,-16.75667 0.0563,-1.32053 1.18989,-2.68679 2.30466,-3.73812 0.89553,-0.84456 2.33065,-1.03334 2.72141,-0.98598 1.48366,0.17979 -1.356,-0.5317 -2.99707,0.40699 -1.51387,0.86592 -3.09693,1.74962 -2.92667,1.39865 0.54409,-1.12161 1.39174,-2.18596 2.25796,-3.0629 0.65149,-0.65957 1.64898,-0.74393 2.32508,-0.76744 1.05552,-0.0367 -0.98598,-1.02366 -2.72409,-0.46499 -1.14758,0.36886 -2.25715,0.65919 -2.40416,0.34036 -1.74131,-3.77655 -0.0699,-7.8384 -0.0652,-9.42138 h -1e-4 c 0.005,-1.58299 -2.6027,3.59339 -2.4201,2.55776 0.18261,-1.03564 1.4712,-2.56787 0.77017,-2.19292 -0.70103,0.37495 -2.62938,3.04738 -2.55371,2.60935 0.0757,-0.43802 1.53156,-2.964 0.78193,-2.41515 -0.74964,0.54885 -4.76753,5.43848 -5.66588,5.96228 -0.89836,0.5238 0.64474,-3.28243 -0.25007,-2.48086 -0.89482,0.80157 -2.43398,3.58387 -2.63323,4.43057 -0.19924,0.84669 -0.45596,-1.37423 -0.27527,-2.3264 0.18069,-0.95216 -3.41128,5.22026 -4.47626,5.99769 -1.06499,0.77743 3.92732,-7.17319 6.91433,-9.8515 5.83352,-5.23062 11.96341,-8.48058 19.66713,-11.59827 5.39305,-2.18255 19.30771,-5.59139 16.47427,-5.19453 -4.63511,0.6492 -12.50364,2.35567 -16.45391,3.67783 -7.98106,2.67126 -10.54881,5.57715 -13.12471,6.67584 -1.60447,0.68435 2.5562,-3.60863 5.48484,-6.77804 1.77315,-1.91891 5.61641,-4.09034 4.93336,-3.83148 -0.42543,0.16123 -4.09947,1.7735 -5.61091,3.13267 -4.90809,4.41361 -12.31941,12.47898 -13.68723,13.18427 -1.36782,0.70529 3.69696,-4.92063 -5.79789,4.85971 -9.49485,9.78034 -10.66719,32.88454 -10.66719,32.88454"
         id="path24" />
      <path
         style="fill:#000000;stroke:#000000;stroke-width:0.465;stroke-linecap:butt;stroke-linejoin:miter;stroke-miterlimit:4;stroke-dasharray:none;stroke-opacity:1"
         d="m 101.41212,238.88607 c 0.58822,-1.21172 3.57727,-17.86121 10.19789,-22.82062 6.62061,-4.9594 12.92816,-11.34151 22.50738,-7.67522 9.57922,3.66629 8.40926,16.25331 8.40926,16.25331 l 0.65336,-5.31519 c 0,0 -0.34523,-7.4594 -3.43878,-10.39801 -3.09355,-2.93861 -6.63136,-5.05745 -13.90358,-3.95888 -7.27222,1.09856 -24.42553,17.33373 -24.42553,17.33373 z"
         id="path26" />
      <path
         style="fill:none;stroke:#000000;stroke-width:0.865;stroke-linecap:butt;stroke-linejoin:miter;stroke-miterlimit:4;stroke-dasharray:none;stroke-opacity:1"
         d="m 105.48846,235.89527 c 2.01493,-1.91166 4.96971,-3.11057 6.01635,-5.33247 1.16472,-2.55916 0.49252,-6.70831 0.43441,-7.93299 -0.0836,-1.76215 1.37163,2.04242 1.03918,0.45309 -0.33245,-1.58933 -3.47543,-2.93682 -1.9686,-2.83971 0.67959,0.0438 3.20474,1.86363 3.14634,3.50948 -0.0584,1.64585 5.80528,-8.97149 13.15187,-9.19427 7.34659,-0.22278 -1.2626,0.53906 -1.98663,1.50664 -0.72404,0.96759 2.94751,-0.85944 4.98656,0.16013 2.03905,1.01957 -1.91078,-0.21137 -2.27132,0.81287 -0.36054,1.02424 3.39417,1.87895 4.06574,6.56455 0.67157,4.6856 -0.7575,6.10142 -3.10916,9.38544 -1.50518,2.10193 -4.39196,4.51785 -5.41558,5.27841 -0.37166,0.27615 0.9982,-2.5248 1.05582,-3.26948 0.0316,-0.40875 -7.12745,6.99131 -7.12745,6.99131"
         id="path28" />
      <path
         style="fill:#000000;stroke:#000000;stroke-width:0.264583px;stroke-linecap:butt;stroke-linejoin:miter;stroke-opacity:1"
         d="m 119.39033,222.65915 c 3.9764,-1.8798 8.05675,0.8092 9.00986,-0.0128 1.82904,-1.62654 -2.79146,6.82388 -7.77967,9.78049 -4.98822,2.95661 -9.5252,0.60829 -9.93568,1.77026 -0.33154,0.93851 -0.39628,4.21111 -0.39628,4.21111 0,0 -1.24467,-2.814 -4.8001,-2.51297 4.74479,-2.93873 5.90425,-5.41037 5.90425,-5.41037 2.1918,-3.78572 4.88058,-6.26801 7.99762,-7.82575 z"
         id="path853" />
      <path
         style="fill:#ff9955;stroke:#000000;stroke-width:0.1;stroke-linecap:butt;stroke-linejoin:miter;stroke-miterlimit:4;stroke-dasharray:none;stroke-opacity:1"
         d="m 118.0106,228.27946 c 0.7806,-1.3563 0.86314,-1.43235 1.63214,-1.9899 0.769,-0.55755 1.95014,-0.6062 2.91306,-1.1326 0.96292,-0.5264 -0.97809,1.78108 -1.77746,2.327 -0.79937,0.54592 -3.22112,1.58325 -2.76774,0.7955 z"
         id="path855" />
      <path
         style="fill:#000000;stroke:#000000;stroke-width:0.264583px;stroke-linecap:butt;stroke-linejoin:miter;stroke-opacity:1"
         d="m 112.25136,229.81579 c 2.76718,-3.2314 7.43993,-10.04866 12.22131,-10.34377 4.78137,-0.29512 6.92355,2.11763 6.92355,2.11763 l -3.3465,-4.2911 0.59332,-1.00649 -1.83013,-1.76363 -6.18524,2.78185 -6.11652,6.5386 -1.31995,-2.10937 -1.13973,1.40869 z"
         id="path857" />
      <path
         style="fill:#000000;stroke:#000000;stroke-width:0.264583px;stroke-linecap:butt;stroke-linejoin:miter;stroke-opacity:1"
         d="m 105.18578,248.37095 c -0.66859,1.30053 -1.32407,5.21327 -0.51761,3.71422 0.80646,-1.49905 0.46054,1.47282 -0.31561,6.2825 -0.77616,4.80969 -2.86855,9.37313 -2.94044,8.2189 v -13.90538 c 0,-1.04068 1.56729,-2.01181 1.72815,-2.44635 0.16086,-0.43455 0.36117,0.15948 0.0918,0.67204 -0.26942,0.51257 1.10999,-1.31719 1.95375,-2.53593 0,0 0.66859,-1.30053 0,0 z"
         id="path859" />
      <path
         style="fill:#000000;stroke:#000000;stroke-width:0.264583px;stroke-linecap:butt;stroke-linejoin:miter;stroke-opacity:1"
         d="m 77.466306,176.60624 c 0,0 -41.336012,-28.37379 -66.030862,11.67211 -24.69484,40.04589 70.905492,88.84959 51.921162,73.92836 -18.430962,-14.26108 -36.263942,-44.46318 -27.919332,-55.59239 8.34462,-11.12921 21.565461,-8.70753 32.416712,0.0548 12.82285,-5.47052 14.68817,-19.12381 9.61232,-30.06286 z"
         id="path871-7" />
      <path
         style="fill:#ffffff;stroke:#000000;stroke-width:0.264583px;stroke-linecap:butt;stroke-linejoin:miter;stroke-opacity:1"
         d="m 101.43779,271.25772 c -1.705114,0.0747 -5.122324,-1.35053 -9.248804,-3.62642 -0.89986,-0.49631 -4.49608,-3.76126 -5.25443,-4.17323 -0.4388,-0.23836 0.45667,1.64714 0.0542,1.4009 -1.19033,-0.7283 -1.68831,-1.93896 -3.08484,-4.13103 -0.64598,-1.01396 1.62169,3.74041 1.30955,3.47652 -1.12311,-0.94954 -3.56033,-5.5567 -4.10547,-6.32936 -0.93052,-1.31885 1.87645,4.58899 1.53612,4.30364 -1.18747,-0.99565 -5.01714,-6.987 -5.58096,-7.87145 -2.39876,-3.7629 1.74897,4.48567 1.4826,4.38265 0,0 -1.09735,-0.74211 -3.33803,-3.1759 -1.90434,-2.06846 -2.58269,-3.58911 -2.87343,-4.21814 -0.42675,-0.92325 0.27468,3.62633 -0.5213,2.27874 -1.15649,-1.95793 -1.25457,-5.91894 -1.79616,-6.58043 -0.20909,-0.25538 -0.51876,2.31949 -0.71676,2.06808 -6.5253,-8.28581 -7.11782,-14.41908 -7.975219,-18.56183 -2.37381,-11.46963 -3.113691,-24.18938 -0.649401,-26.51993 10.35051,-9.78874 10.69752,-15.9667 10.66381,-16.75667 -0.0563,-1.32053 -1.18989,-2.68679 -2.30466,-3.73812 -0.89553,-0.84456 -2.33065,-1.03334 -2.72141,-0.98598 -1.48366,0.17979 1.356,-0.5317 2.99707,0.40699 1.51387,0.86592 3.09693,1.74962 2.92667,1.39865 -0.54409,-1.12161 -1.39174,-2.18596 -2.25796,-3.0629 -0.65149,-0.65957 -1.64898,-0.74393 -2.32508,-0.76744 -1.05552,-0.0367 0.98598,-1.02366 2.72409,-0.46499 1.14758,0.36886 2.25715,0.65919 2.40416,0.34036 1.74131,-3.77655 0.0699,-7.8384 0.0652,-9.42138 h 1e-4 c -0.005,-1.58299 2.6027,3.59339 2.4201,2.55776 -0.18261,-1.03564 -1.4712,-2.56787 -0.77017,-2.19292 0.70103,0.37495 2.62938,3.04738 2.55371,2.60935 -0.0757,-0.43802 -1.53156,-2.964 -0.78193,-2.41515 0.74964,0.54885 4.76753,5.43848 5.66588,5.96228 0.89836,0.5238 -0.64474,-3.28243 0.25007,-2.48086 0.89482,0.80157 2.43398,3.58387 2.63323,4.43057 0.19924,0.84669 0.45596,-1.37423 0.27527,-2.3264 -0.18069,-0.95216 3.41128,5.22026 4.47627,5.99769 1.06498,0.77743 -3.92733,-7.17319 -6.91434,-9.8515 -5.83352,-5.23062 -11.96341,-8.48058 -19.66713,-11.59827 -5.393048,-2.18255 -19.307712,-5.59139 -16.474272,-5.19453 4.635113,0.6492 12.503641,2.35567 16.453912,3.67783 7.98106,2.67126 10.54881,5.57715 13.12471,6.67584 1.60447,0.68435 -2.5562,-3.60863 -5.48484,-6.77804 -1.77315,-1.91891 -5.61641,-4.09034 -4.93336,-3.83148 0.42543,0.16123 4.09947,1.7735 5.61091,3.13267 4.90809,4.41361 12.31941,12.47898 13.68723,13.18427 1.36782,0.70529 -3.69696,-4.92063 5.79789,4.85971 9.494854,9.78034 10.667204,32.88454 10.667204,32.88454"
         id="path24-4" />
      <g
         id="g1214"
         transform="matrix(-0.28880978,0.0330825,0.04093153,0.23342761,136.22458,135.97827)"
         style="fill:#ffb380">
        <path
           style="opacity:1;fill:#ffb380;stroke:none;stroke-width:1;stroke-linecap:round;stroke-linejoin:round;stroke-miterlimit:4;stroke-dasharray:none"
           id="path1163"
           d="m 134.20618,114.86068 c 0.60239,4.29841 1.15446,8.60454 1.71431,12.9089 0.46544,3.71964 0.85923,7.44944 1.07932,11.19215 0.0114,0.18498 0.0229,0.36996 0.0343,0.55494 0,0 2.38324,-1.25446 2.38324,-1.25446 v 0 c -0.036,-0.16976 -0.0719,-0.33951 -0.10784,-0.50927 -0.59222,-3.63561 -1.09534,-7.28545 -1.57357,-10.93757 -0.54741,-4.38625 -1.09587,-8.79149 -1.09513,-13.21904 0,0 -2.43466,1.26435 -2.43466,1.26435 z" />
        <path
           style="opacity:1;fill:#ffb380;stroke:none;stroke-width:1;stroke-linecap:round;stroke-linejoin:round;stroke-miterlimit:4;stroke-dasharray:none"
           id="path1165"
           d="m 129.32339,115.71755 c 3.28607,-0.60711 6.60185,-1.02061 9.91873,-1.41535 0.63192,-0.0712 1.26384,-0.14244 1.89577,-0.21365 0,0 1.86131,-1.38779 1.86131,-1.38779 v 0 c -0.6551,0.0887 -1.31019,0.17731 -1.96528,0.26597 -3.1555,0.39682 -6.31508,0.76986 -9.48044,1.07753 0,0 -2.23009,1.67329 -2.23009,1.67329 z" />
        <path
           style="opacity:1;fill:#ffb380;stroke:none;stroke-width:1;stroke-linecap:round;stroke-linejoin:round;stroke-miterlimit:4;stroke-dasharray:none"
           id="path1167"
           d="m 130.28046,124.3925 c 1.43089,-0.0443 2.85064,-0.25797 4.2702,-0.43056 0.64556,-0.0799 1.29055,-0.16424 1.93552,-0.24875 0,0 2.1605,-1.62057 2.1605,-1.62057 v 0 c -0.67277,0.11757 -1.34638,0.2304 -2.02307,0.32353 -1.34985,0.17297 -2.71208,0.37971 -4.07618,0.32968 0,0 -2.26697,1.64667 -2.26697,1.64667 z" />
      </g>
      <g
         id="g1219"
         transform="matrix(-0.29169587,0,0,0.36436733,149.33009,130.87332)"
         style="fill:#ffb380">
        <path
           style="opacity:1;fill:#ffb380;stroke:none;stroke-width:1;stroke-linecap:round;stroke-linejoin:round;stroke-miterlimit:4;stroke-dasharray:none"
           id="path1169"
           d="m 153.94165,121.64628 c 3.5016,-0.17562 7.01364,-0.0214 10.51517,0.10349 1.76842,0.0681 0.94095,0.0352 2.48244,0.0981 0,0 2.05937,-1.4914 2.05937,-1.4914 v 0 c -1.63985,0.014 -0.76254,0.009 -2.63193,0.0118 -3.40135,-0.0242 -6.80156,-0.11215 -10.19444,-0.3675 0,0 -2.23061,1.64546 -2.23061,1.64546 z" />
        <path
           style="opacity:1;fill:#ffb380;stroke:none;stroke-width:1;stroke-linecap:round;stroke-linejoin:round;stroke-miterlimit:4;stroke-dasharray:none"
           id="path1171"
           d="m 157.76751,122.19693 c -0.25142,0.91936 -0.515,1.83575 -0.7634,2.75633 0,0 2.4115,-1.15233 2.4115,-1.15233 v 0 c 0.23632,-0.94261 0.49584,-1.88331 0.89302,-2.77318 0,0 -2.54112,1.16918 -2.54112,1.16918 z" />
        <path
           style="opacity:1;fill:#ffb380;stroke:none;stroke-width:1;stroke-linecap:round;stroke-linejoin:round;stroke-miterlimit:4;stroke-dasharray:none"
           id="path1173"
           d="m 161.99083,123.48901 c 1.39194,1.42663 2.19264,3.29086 2.98295,5.08884 0.70263,1.75476 1.26995,3.60291 1.26002,5.51346 -0.007,1.29449 -0.14425,1.56058 -0.43923,2.80943 -0.68344,2.24597 -2.04533,4.11179 -3.69152,5.74381 -0.57897,0.50681 -0.3007,0.28008 -0.82876,0.68755 0,0 2.52086,-1.01497 2.52086,-1.01497 v 0 c 0.46797,-0.40818 0.22014,-0.1821 0.73817,-0.68405 1.57125,-1.70001 2.82387,-3.5443 3.47332,-5.79787 0.27877,-1.27548 0.41367,-1.55769 0.40781,-2.87495 -0.009,-1.93736 -0.5884,-3.80607 -1.29042,-5.5904 -0.77861,-1.85115 -1.58143,-3.69886 -2.75031,-5.34474 0,0 -2.38289,1.46389 -2.38289,1.46389 z" />
      </g>
      <g
         id="g1209"
         transform="matrix(0.29169587,0,0,0.36436733,53.167902,125.06044)"
         style="fill:#ffb380">
        <path
           style="opacity:1;fill:#ffb380;stroke:none;stroke-width:1;stroke-linecap:round;stroke-linejoin:round;stroke-miterlimit:4;stroke-dasharray:none"
           id="path1175"
           d="m 159.47769,98.427324 c 2.36204,-0.334944 4.75209,-0.398872 7.13204,-0.515294 1.08765,-0.06382 2.17398,-0.146907 3.26094,-0.221134 0,0 2.07156,-1.53035 2.07156,-1.53035 v 0 c -1.10277,0.09979 -2.20604,0.193379 -3.31103,0.265637 -2.30784,0.142616 -4.6172,0.26389 -6.92822,0.340709 0,0 -2.22529,1.660432 -2.22529,1.660432 z" />
        <path
           style="opacity:1;fill:#ffb380;stroke:none;stroke-width:1;stroke-linecap:round;stroke-linejoin:round;stroke-miterlimit:4;stroke-dasharray:none"
           id="path1177"
           d="m 166.28952,99.552674 c 0.9103,1.490266 1.49995,3.259886 1.54504,5.017716 0.0116,0.45121 -0.0537,0.90111 -0.0805,1.35167 -0.28521,1.78032 -1.19957,3.30755 -2.16121,4.79352 0,0 2.32211,-1.02512 2.32211,-1.02512 v 0 c 0.90603,-1.52816 1.78413,-3.09098 2.0479,-4.87839 0.0242,-0.46505 0.0868,-0.92968 0.0726,-1.39515 -0.0552,-1.81553 -0.67889,-3.583502 -1.34563,-5.250065 0,0 -2.40035,1.385819 -2.40035,1.385819 z" />
      </g>
      <g
         id="g1205"
         transform="matrix(-0.29169587,0,0,0.36436733,136.72727,119.00177)"
         style="fill:#ffb380">
        <path
           style="opacity:1;fill:#ffb380;stroke:none;stroke-width:1;stroke-linecap:round;stroke-linejoin:round;stroke-miterlimit:4;stroke-dasharray:none"
           id="path1179"
           d="m 112.46276,97.127411 c 2.5407,2.224582 5.61726,3.655729 8.679,5.005439 1.56533,0.67604 3.19565,1.1694 4.82844,1.64836 0,0 2.02194,-1.38938 2.02194,-1.38938 v 0 c -1.68088,-0.41258 -3.35621,-0.85156 -4.95963,-1.51733 -0.65355,-0.28168 -1.31698,-0.54149 -1.96067,-0.84504 -2.303,-1.08606 -4.58069,-2.401815 -6.26122,-4.351381 0,0 -2.34786,1.449332 -2.34786,1.449332 z" />
        <path
           style="opacity:1;fill:#ffb380;stroke:none;stroke-width:1;stroke-linecap:round;stroke-linejoin:round;stroke-miterlimit:4;stroke-dasharray:none"
           id="path1181"
           d="m 119.60532,103.21407 c -0.66463,0.80957 -1.48439,1.47192 -2.31192,2.107 -0.10803,0.076 -0.21606,0.15203 -0.32409,0.22804 0,0 2.54068,-1.00717 2.54068,-1.00717 v 0 c 0.0995,-0.0761 0.19893,-0.1522 0.2984,-0.2283 0.83155,-0.67632 1.63855,-1.38247 2.36575,-2.17184 0,0 -2.56882,1.07227 -2.56882,1.07227 z" />
        <path
           style="opacity:1;fill:#ffb380;stroke:none;stroke-width:1;stroke-linecap:round;stroke-linejoin:round;stroke-miterlimit:4;stroke-dasharray:none"
           id="path1183"
           d="m 114.45969,106.87855 c 2.34481,0.0737 4.68444,0.25823 7.0203,0.46973 0.88827,0.0848 1.77598,0.17453 2.66272,0.27393 0,0 2.15958,-1.54164 2.15958,-1.54164 v 0 c -0.93708,-0.0537 -1.87437,-0.10414 -2.81079,-0.16891 -2.25816,-0.16393 -4.52067,-0.33297 -6.7618,-0.66121 0,0 -2.27001,1.6281 -2.27001,1.6281 z" />
      </g>
      <g
         id="g1200"
         transform="matrix(-0.29169587,0,0,0.36436733,129.49365,112.36985)"
         style="fill:#ffb380">
        <path
           style="opacity:1;fill:#ffb380;stroke:none;stroke-width:1;stroke-linecap:round;stroke-linejoin:round;stroke-miterlimit:4;stroke-dasharray:none"
           id="path1185"
           d="m 91.399676,99.066822 c 3.474731,-0.166171 6.956007,-0.09282 10.432274,-0.01897 0,0 1.86671,-1.352217 1.86671,-1.352217 v 0 c -3.35573,-0.02394 -6.712016,-0.08097 -10.063831,-0.252354 0,0 -2.235153,1.623552 -2.235153,1.623552 z" />
        <path
           style="opacity:1;fill:#ffb380;stroke:none;stroke-width:1;stroke-linecap:round;stroke-linejoin:round;stroke-miterlimit:4;stroke-dasharray:none"
           id="path1187"
           d="m 93.088562,100.40302 c 0.166989,1.35165 0.152564,2.71221 0.109077,4.07008 0,0 2.270353,-1.15006 2.270353,-1.15006 v 0 c 0.02117,-1.39033 0.01421,-2.78086 0.04673,-4.170987 0,0 -2.426163,1.250967 -2.426163,1.250967 z" />
        <path
           style="opacity:1;fill:#ffb380;stroke:none;stroke-width:1;stroke-linecap:round;stroke-linejoin:round;stroke-miterlimit:4;stroke-dasharray:none"
           id="path1189"
           d="m 96.485095,100.59103 c 0.111874,2.12396 0.107389,4.25155 0.190981,6.37671 0.01693,0.31916 0.03385,0.63832 0.05078,0.95749 0,0 2.294575,-1.19168 2.294575,-1.19168 v 0 c -0.03194,-0.30896 -0.06388,-0.61792 -0.09582,-0.92687 -0.141671,-2.15767 -0.176506,-4.3263 0.04318,-6.480804 0,0 -2.483694,1.265154 -2.483694,1.265154 z" />
        <path
           style="opacity:1;fill:#ffb380;stroke:none;stroke-width:1;stroke-linecap:round;stroke-linejoin:round;stroke-miterlimit:4;stroke-dasharray:none"
           id="path1191"
           d="m 100.06769,100.62313 c -0.0254,2.67943 -0.0475,5.3591 -0.0497,8.03878 0.004,1.05929 0.005,2.11856 7.9e-4,3.17784 0,0 2.32911,-1.19501 2.32911,-1.19501 v 0 c -0.0634,-1.03172 -0.11918,-2.06388 -0.14979,-3.09721 -0.0738,-2.71823 -0.11235,-5.46451 0.36498,-8.152127 0,0 -2.4953,1.227727 -2.4953,1.227727 z" />
        <path
           style="opacity:1;fill:#ffb380;stroke:none;stroke-width:1;stroke-linecap:round;stroke-linejoin:round;stroke-miterlimit:4;stroke-dasharray:none"
           id="path1193"
           d="m 95.567012,89.050878 c 1.112724,1.645991 1.863955,3.527708 2.243659,5.476459 0.09202,0.472287 0.139655,0.952146 0.209484,1.428218 0.09846,1.631149 0.07763,0.851837 0.07613,2.337533 0,0 2.275675,-1.167397 2.275675,-1.167397 v 0 c -0.0828,-1.46862 -0.0247,-0.696063 -0.18408,-2.316909 -0.203705,-1.250915 -0.239548,-1.688769 -0.58779,-2.924378 -0.411036,-1.458426 -1.016307,-2.854376 -1.652307,-4.225888 0,0 -2.380774,1.392362 -2.380774,1.392362 z" />
      </g>
      <path
         style="fill:#000000;stroke:#000000;stroke-width:0.465;stroke-linecap:butt;stroke-linejoin:miter;stroke-miterlimit:4;stroke-dasharray:none;stroke-opacity:1"
         d="m 101.41212,238.88607 c -0.58822,-1.21172 -3.57727,-17.86121 -10.19789,-22.82062 -6.62061,-4.9594 -12.92816,-11.34151 -22.507381,-7.67522 -9.57922,3.66629 -8.40926,16.25331 -8.40926,16.25331 l -0.65336,-5.31519 c 0,0 0.34523,-7.4594 3.43878,-10.39801 3.09355,-2.93861 6.63136,-5.05745 13.903581,-3.95888 7.27222,1.09856 24.42553,17.33373 24.42553,17.33373 z"
         id="path26-6" />
      <path
         style="fill:none;stroke:#000000;stroke-width:0.865;stroke-linecap:butt;stroke-linejoin:miter;stroke-miterlimit:4;stroke-dasharray:none;stroke-opacity:1"
         d="m 97.33578,235.89528 c -2.01493,-1.91166 -4.96971,-3.11058 -6.01635,-5.33248 -1.16472,-2.55916 -0.49252,-6.70831 -0.43441,-7.93299 0.0836,-1.76215 -1.37163,2.04242 -1.03918,0.45309 0.33245,-1.58933 3.47543,-2.93682 1.9686,-2.83971 -0.67959,0.0438 -3.20474,1.86363 -3.14634,3.50948 0.0584,1.64585 -5.80528,-8.97149 -13.151871,-9.19427 -7.34659,-0.22278 1.262601,0.53906 1.986631,1.50664 0.72404,0.96759 -2.947511,-0.85944 -4.986561,0.16013 -2.03905,1.01957 1.91078,-0.21137 2.27132,0.81287 0.36054,1.02424 -3.39417,1.87895 -4.06574,6.56455 -0.67157,4.6856 0.7575,6.10142 3.10916,9.38544 1.50518,2.10194 4.391961,4.51785 5.415581,5.27841 0.37166,0.27616 -0.9982,-2.5248 -1.05582,-3.26948 -0.0316,-0.40875 7.12745,6.99131 7.12745,6.99131"
         id="path28-9" />
      <path
         style="fill:#000000;stroke:#000000;stroke-width:0.264583px;stroke-linecap:butt;stroke-linejoin:miter;stroke-opacity:1"
         d="m 83.43391,222.65915 c -3.9764,-1.8798 -8.056751,0.8092 -9.009861,-0.0128 -1.82904,-1.62654 2.791461,6.82388 7.779671,9.7805 4.98822,2.95661 9.5252,0.60829 9.93568,1.77026 0.33154,0.9385 0.39628,4.2111 0.39628,4.2111 0,0 1.24467,-2.814 4.8001,-2.51297 -4.74479,-2.93873 -5.90425,-5.41037 -5.90425,-5.41037 -2.1918,-3.78572 -4.88058,-6.26801 -7.99762,-7.82575 z"
         id="path853-8" />
      <path
         style="fill:#ff9955;stroke:#000000;stroke-width:0.1;stroke-linecap:butt;stroke-linejoin:miter;stroke-miterlimit:4;stroke-dasharray:none;stroke-opacity:1"
         d="m 84.81364,228.27946 c -0.7806,-1.3563 -0.86314,-1.43235 -1.63214,-1.9899 -0.769,-0.55755 -1.95014,-0.6062 -2.91306,-1.1326 -0.96292,-0.5264 0.97809,1.78108 1.77746,2.327 0.79937,0.54592 3.22112,1.58325 2.76774,0.7955 z"
         id="path855-7" />
      <path
         style="fill:#000000;stroke:#000000;stroke-width:0.264583px;stroke-linecap:butt;stroke-linejoin:miter;stroke-opacity:1"
         d="m 90.57288,229.81579 c -2.76718,-3.2314 -7.43993,-10.04866 -12.22131,-10.34377 -4.781371,-0.29512 -6.923551,2.11763 -6.923551,2.11763 l 3.3465,-4.2911 -0.59332,-1.00649 1.83013,-1.76363 6.185241,2.78185 6.11652,6.5386 1.31995,-2.10937 1.13973,1.40869 z"
         id="path857-6" />
      <path
         style="fill:#000000;stroke:#000000;stroke-width:0.264583px;stroke-linecap:butt;stroke-linejoin:miter;stroke-opacity:1"
         d="m 97.63846,248.37095 c 0.66859,1.30053 1.32407,5.21327 0.51761,3.71422 -0.80646,-1.49905 -0.46054,1.47283 0.31561,6.2825 0.77616,4.80969 2.86855,9.37314 2.94044,8.2189 V 252.6812 c 0,-1.04068 -1.56729,-2.01182 -1.72815,-2.44635 -0.16086,-0.43456 -0.36117,0.15948 -0.0918,0.67203 0.26942,0.51257 -1.10999,-1.31718 -1.95375,-2.53593 0,0 -0.66859,-1.30052 0,0 z"
         id="path859-6" />
    </g>
  </g>
</svg>
